<svg width="435" height="235" viewBox="0 0 435 235" fill="none" xmlns="http://www.w3.org/2000/svg" role="img" aria-label="Contribution Activity" color="#24292f">
  <title>Contribution Activity</title>
  <style>
    .heading { font: 600 15px 'Segoe UI', Ubuntu, -apple-system, Helvetica, sans-serif; fill: #1a7f5a; }
    .stat { font: 600 25px 'Segoe UI', Ubuntu, -apple-system, Helvetica, sans-serif; fill: #24292f; }
    .stat-sm { font: 600 18px 'Segoe UI', Ubuntu, -apple-system, Helvetica, sans-serif; fill: #24292f; }
    .caption {
      font: 500 10px 'Segoe UI', Ubuntu, -apple-system, Helvetica, sans-serif;
      fill: #24292f;
      fill-opacity: 0.55;
      letter-spacing: 0.08em;
    }
    .tile-value { font: 600 20px 'Segoe UI', Ubuntu, -apple-system, Helvetica, sans-serif; fill: #24292f; }
    .rank { font: 600 13px 'Segoe UI', Ubuntu, -apple-system, Helvetica, sans-serif; fill: #1a7f5a; }
    .row { font: 600 11px 'Segoe UI', Ubuntu, -apple-system, Helvetica, sans-serif; fill: #24292f; }
    .row-dim { font: 500 10px 'Segoe UI', Ubuntu, -apple-system, Helvetica, sans-serif; fill: #24292f; fill-opacity: 0.55; }
    .badge { font: 600 11px 'Segoe UI', Ubuntu, -apple-system, Helvetica, sans-serif; fill: #1a7f5a; letter-spacing: 0.08em; }
    .icon { fill: #41b883; fill-opacity: 0.85; }
  
    @media (prefers-reduced-motion: no-preference) {
      .rise, .fade, .pop { opacity: 0; }
      .rise { animation: rise 0.55s ease-out forwards; }
      .fade { animation: fade 0.5s ease-out forwards; }
      .pop {
        transform-box: fill-box;
        transform-origin: center;
        animation: pop 0.6s cubic-bezier(0.34, 1.3, 0.64, 1) forwards;
      }
      .grow {
        transform-box: fill-box;
        transform-origin: left center;
        animation: grow 0.9s cubic-bezier(0.22, 1, 0.36, 1) forwards;
      }
      .ring { animation: ring 1.2s cubic-bezier(0.22, 1, 0.36, 1); }
      .sweep { animation: sweep 1.15s cubic-bezier(0.32, 0.9, 0.4, 1); }
      @keyframes sweep { from { stroke-dashoffset: var(--dash); } }
      @keyframes fade { to { opacity: 1; } }
      @keyframes rise {
        from { opacity: 0; transform: translateY(7px); }
        to { opacity: 1; transform: translateY(0); }
      }
      @keyframes pop {
        from { opacity: 0; transform: scale(0.86); }
        to { opacity: 1; transform: scale(1); }
      }
      @keyframes grow { from { transform: scaleX(0); } }
      @keyframes ring { from { stroke-dashoffset: var(--dash); } }
    }
  </style>
  <rect x="0.5" y="0.5" rx="10" width="434" height="234" fill="#ffffff" stroke="#e3e8ee"/>
  <text class="heading" x="24" y="34">Contribution Activity</text>
  
  <line x1="24" y1="52" x2="411" y2="52" stroke="#e3e8ee"/>
  
    <text class="row-dim" x="24" y="102">Mon</text><text class="row-dim" x="24" y="132">Wed</text><text class="row-dim" x="24" y="162">Fri</text>
    <g class="fade"><rect x="52.0" y="78" width="12" height="12" rx="2" fill="#41b883" fill-opacity="0.75"/><rect x="52.0" y="93" width="12" height="12" rx="2" fill="#41b883" fill-opacity="0.28"/><rect x="52.0" y="108" width="12" height="12" rx="2" fill="#41b883" fill-opacity="0.08"/><rect x="52.0" y="123" width="12" height="12" rx="2" fill="#41b883" fill-opacity="0.28"/><rect x="52.0" y="138" width="12" height="12" rx="2" fill="#41b883" fill-opacity="0.08"/><rect x="52.0" y="153" width="12" height="12" rx="2" fill="#41b883" fill-opacity="0.08"/><rect x="52.0" y="168" width="12" height="12" rx="2" fill="#41b883" fill-opacity="0.08"/></g><g class="fade" style="animation-delay:14ms"><rect x="67.0" y="78" width="12" height="12" rx="2" fill="#41b883" fill-opacity="0.08"/><rect x="67.0" y="93" width="12" height="12" rx="2" fill="#41b883" fill-opacity="0.08"/><rect x="67.0" y="108" width="12" height="12" rx="2" fill="#41b883" fill-opacity="0.28"/><rect x="67.0" y="123" width="12" height="12" rx="2" fill="#41b883" fill-opacity="0.5"/><rect x="67.0" y="138" width="12" height="12" rx="2" fill="#41b883" fill-opacity="0.28"/><rect x="67.0" y="153" width="12" height="12" rx="2" fill="#41b883" fill-opacity="0.28"/><rect x="67.0" y="168" width="12" height="12" rx="2" fill="#41b883" fill-opacity="0.08"/></g><g class="fade" style="animation-delay:28ms"><rect x="82.0" y="78" width="12" height="12" rx="2" fill="#41b883" fill-opacity="0.08"/><rect x="82.0" y="93" width="12" height="12" rx="2" fill="#41b883" fill-opacity="0.28"/><rect x="82.0" y="108" width="12" height="12" rx="2" fill="#41b883" fill-opacity="0.28"/><rect x="82.0" y="123" width="12" height="12" rx="2" fill="#41b883" fill-opacity="0.28"/><rect x="82.0" y="138" width="12" height="12" rx="2" fill="#41b883" fill-opacity="0.28"/><rect x="82.0" y="153" width="12" height="12" rx="2" fill="#41b883" fill-opacity="0.28"/><rect x="82.0" y="168" width="12" height="12" rx="2" fill="#41b883" fill-opacity="0.08"/></g><g class="fade" style="animation-delay:42ms"><rect x="97.0" y="78" width="12" height="12" rx="2" fill="#41b883" fill-opacity="0.08"/><rect x="97.0" y="93" width="12" height="12" rx="2" fill="#41b883" fill-opacity="0.5"/><rect x="97.0" y="108" width="12" height="12" rx="2" fill="#41b883" fill-opacity="0.28"/><rect x="97.0" y="123" width="12" height="12" rx="2" fill="#41b883" fill-opacity="0.28"/><rect x="97.0" y="138" width="12" height="12" rx="2" fill="#41b883" fill-opacity="0.28"/><rect x="97.0" y="153" width="12" height="12" rx="2" fill="#41b883" fill-opacity="0.28"/><rect x="97.0" y="168" width="12" height="12" rx="2" fill="#41b883" fill-opacity="0.28"/></g><g class="fade" style="animation-delay:56ms"><rect x="112.0" y="78" width="12" height="12" rx="2" fill="#41b883" fill-opacity="0.28"/><rect x="112.0" y="93" width="12" height="12" rx="2" fill="#41b883" fill-opacity="0.28"/><rect x="112.0" y="108" width="12" height="12" rx="2" fill="#41b883" fill-opacity="0.28"/><rect x="112.0" y="123" width="12" height="12" rx="2" fill="#41b883" fill-opacity="0.28"/><rect x="112.0" y="138" width="12" height="12" rx="2" fill="#41b883" fill-opacity="0.28"/><rect x="112.0" y="153" width="12" height="12" rx="2" fill="#41b883" fill-opacity="0.28"/><rect x="112.0" y="168" width="12" height="12" rx="2" fill="#41b883" fill-opacity="0.08"/></g><g class="fade" style="animation-delay:70ms"><rect x="127.0" y="78" width="12" height="12" rx="2" fill="#41b883" fill-opacity="0.08"/><rect x="127.0" y="93" width="12" height="12" rx="2" fill="#41b883" fill-opacity="0.28"/><rect x="127.0" y="108" width="12" height="12" rx="2" fill="#41b883" fill-opacity="0.28"/><rect x="127.0" y="123" width="12" height="12" rx="2" fill="#41b883" fill-opacity="0.08"/><rect x="127.0" y="138" width="12" height="12" rx="2" fill="#41b883" fill-opacity="1"/><rect x="127.0" y="153" width="12" height="12" rx="2" fill="#41b883" fill-opacity="1"/><rect x="127.0" y="168" width="12" height="12" rx="2" fill="#41b883" fill-opacity="0.75"/></g><g class="fade" style="animation-delay:84ms"><rect x="142.0" y="78" width="12" height="12" rx="2" fill="#41b883" fill-opacity="0.75"/><rect x="142.0" y="93" width="12" height="12" rx="2" fill="#41b883" fill-opacity="0.5"/><rect x="142.0" y="108" width="12" height="12" rx="2" fill="#41b883" fill-opacity="0.28"/><rect x="142.0" y="123" width="12" height="12" rx="2" fill="#41b883" fill-opacity="0.5"/><rect x="142.0" y="138" width="12" height="12" rx="2" fill="#41b883" fill-opacity="0.28"/><rect x="142.0" y="153" width="12" height="12" rx="2" fill="#41b883" fill-opacity="0.5"/><rect x="142.0" y="168" width="12" height="12" rx="2" fill="#41b883" fill-opacity="0.28"/></g><g class="fade" style="animation-delay:98ms"><rect x="157.0" y="78" width="12" height="12" rx="2" fill="#41b883" fill-opacity="0.08"/><rect x="157.0" y="93" width="12" height="12" rx="2" fill="#41b883" fill-opacity="0.28"/><rect x="157.0" y="108" width="12" height="12" rx="2" fill="#41b883" fill-opacity="0.5"/><rect x="157.0" y="123" width="12" height="12" rx="2" fill="#41b883" fill-opacity="0.28"/><rect x="157.0" y="138" width="12" height="12" rx="2" fill="#41b883" fill-opacity="0.28"/><rect x="157.0" y="153" width="12" height="12" rx="2" fill="#41b883" fill-opacity="0.28"/><rect x="157.0" y="168" width="12" height="12" rx="2" fill="#41b883" fill-opacity="0.08"/></g><g class="fade" style="animation-delay:112ms"><rect x="172.0" y="78" width="12" height="12" rx="2" fill="#41b883" fill-opacity="0.08"/><rect x="172.0" y="93" width="12" height="12" rx="2" fill="#41b883" fill-opacity="0.28"/><rect x="172.0" y="108" width="12" height="12" rx="2" fill="#41b883" fill-opacity="0.08"/><rect x="172.0" y="123" width="12" height="12" rx="2" fill="#41b883" fill-opacity="0.08"/><rect x="172.0" y="138" width="12" height="12" rx="2" fill="#41b883" fill-opacity="0.08"/><rect x="172.0" y="153" width="12" height="12" rx="2" fill="#41b883" fill-opacity="0.08"/><rect x="172.0" y="168" width="12" height="12" rx="2" fill="#41b883" fill-opacity="0.08"/></g><g class="fade" style="animation-delay:126ms"><rect x="187.0" y="78" width="12" height="12" rx="2" fill="#41b883" fill-opacity="0.08"/><rect x="187.0" y="93" width="12" height="12" rx="2" fill="#41b883" fill-opacity="0.08"/><rect x="187.0" y="108" width="12" height="12" rx="2" fill="#41b883" fill-opacity="0.28"/><rect x="187.0" y="123" width="12" height="12" rx="2" fill="#41b883" fill-opacity="0.28"/><rect x="187.0" y="138" width="12" height="12" rx="2" fill="#41b883" fill-opacity="0.75"/><rect x="187.0" y="153" width="12" height="12" rx="2" fill="#41b883" fill-opacity="0.28"/><rect x="187.0" y="168" width="12" height="12" rx="2" fill="#41b883" fill-opacity="0.08"/></g><g class="fade" style="animation-delay:140ms"><rect x="202.0" y="78" width="12" height="12" rx="2" fill="#41b883" fill-opacity="0.08"/><rect x="202.0" y="93" width="12" height="12" rx="2" fill="#41b883" fill-opacity="0.08"/><rect x="202.0" y="108" width="12" height="12" rx="2" fill="#41b883" fill-opacity="0.08"/><rect x="202.0" y="123" width="12" height="12" rx="2" fill="#41b883" fill-opacity="0.08"/><rect x="202.0" y="138" width="12" height="12" rx="2" fill="#41b883" fill-opacity="0.08"/><rect x="202.0" y="153" width="12" height="12" rx="2" fill="#41b883" fill-opacity="0.08"/><rect x="202.0" y="168" width="12" height="12" rx="2" fill="#41b883" fill-opacity="0.08"/></g><g class="fade" style="animation-delay:154ms"><rect x="217.0" y="78" width="12" height="12" rx="2" fill="#41b883" fill-opacity="0.08"/><rect x="217.0" y="93" width="12" height="12" rx="2" fill="#41b883" fill-opacity="0.28"/><rect x="217.0" y="108" width="12" height="12" rx="2" fill="#41b883" fill-opacity="0.08"/><rect x="217.0" y="123" width="12" height="12" rx="2" fill="#41b883" fill-opacity="0.08"/><rect x="217.0" y="138" width="12" height="12" rx="2" fill="#41b883" fill-opacity="0.28"/><rect x="217.0" y="153" width="12" height="12" rx="2" fill="#41b883" fill-opacity="0.5"/><rect x="217.0" y="168" width="12" height="12" rx="2" fill="#41b883" fill-opacity="1"/></g><g class="fade" style="animation-delay:168ms"><rect x="232.0" y="78" width="12" height="12" rx="2" fill="#41b883" fill-opacity="0.5"/><rect x="232.0" y="93" width="12" height="12" rx="2" fill="#41b883" fill-opacity="0.5"/><rect x="232.0" y="108" width="12" height="12" rx="2" fill="#41b883" fill-opacity="0.28"/><rect x="232.0" y="123" width="12" height="12" rx="2" fill="#41b883" fill-opacity="0.28"/><rect x="232.0" y="138" width="12" height="12" rx="2" fill="#41b883" fill-opacity="0.28"/><rect x="232.0" y="153" width="12" height="12" rx="2" fill="#41b883" fill-opacity="0.28"/><rect x="232.0" y="168" width="12" height="12" rx="2" fill="#41b883" fill-opacity="0.28"/></g><g class="fade" style="animation-delay:182ms"><rect x="247.0" y="78" width="12" height="12" rx="2" fill="#41b883" fill-opacity="0.28"/><rect x="247.0" y="93" width="12" height="12" rx="2" fill="#41b883" fill-opacity="0.28"/><rect x="247.0" y="108" width="12" height="12" rx="2" fill="#41b883" fill-opacity="0.5"/><rect x="247.0" y="123" width="12" height="12" rx="2" fill="#41b883" fill-opacity="0.08"/><rect x="247.0" y="138" width="12" height="12" rx="2" fill="#41b883" fill-opacity="0.5"/><rect x="247.0" y="153" width="12" height="12" rx="2" fill="#41b883" fill-opacity="0.5"/><rect x="247.0" y="168" width="12" height="12" rx="2" fill="#41b883" fill-opacity="0.28"/></g><g class="fade" style="animation-delay:196ms"><rect x="262.0" y="78" width="12" height="12" rx="2" fill="#41b883" fill-opacity="0.28"/><rect x="262.0" y="93" width="12" height="12" rx="2" fill="#41b883" fill-opacity="0.5"/><rect x="262.0" y="108" width="12" height="12" rx="2" fill="#41b883" fill-opacity="0.5"/><rect x="262.0" y="123" width="12" height="12" rx="2" fill="#41b883" fill-opacity="0.28"/><rect x="262.0" y="138" width="12" height="12" rx="2" fill="#41b883" fill-opacity="0.5"/><rect x="262.0" y="153" width="12" height="12" rx="2" fill="#41b883" fill-opacity="0.5"/><rect x="262.0" y="168" width="12" height="12" rx="2" fill="#41b883" fill-opacity="0.28"/></g><g class="fade" style="animation-delay:210ms"><rect x="277.0" y="78" width="12" height="12" rx="2" fill="#41b883" fill-opacity="0.28"/><rect x="277.0" y="93" width="12" height="12" rx="2" fill="#41b883" fill-opacity="0.28"/><rect x="277.0" y="108" width="12" height="12" rx="2" fill="#41b883" fill-opacity="0.28"/><rect x="277.0" y="123" width="12" height="12" rx="2" fill="#41b883" fill-opacity="0.28"/><rect x="277.0" y="138" width="12" height="12" rx="2" fill="#41b883" fill-opacity="0.28"/><rect x="277.0" y="153" width="12" height="12" rx="2" fill="#41b883" fill-opacity="0.28"/><rect x="277.0" y="168" width="12" height="12" rx="2" fill="#41b883" fill-opacity="0.08"/></g><g class="fade" style="animation-delay:224ms"><rect x="292.0" y="78" width="12" height="12" rx="2" fill="#41b883" fill-opacity="0.28"/><rect x="292.0" y="93" width="12" height="12" rx="2" fill="#41b883" fill-opacity="0.28"/><rect x="292.0" y="108" width="12" height="12" rx="2" fill="#41b883" fill-opacity="0.08"/><rect x="292.0" y="123" width="12" height="12" rx="2" fill="#41b883" fill-opacity="0.28"/><rect x="292.0" y="138" width="12" height="12" rx="2" fill="#41b883" fill-opacity="0.5"/><rect x="292.0" y="153" width="12" height="12" rx="2" fill="#41b883" fill-opacity="0.08"/><rect x="292.0" y="168" width="12" height="12" rx="2" fill="#41b883" fill-opacity="0.28"/></g><g class="fade" style="animation-delay:238ms"><rect x="307.0" y="78" width="12" height="12" rx="2" fill="#41b883" fill-opacity="0.08"/><rect x="307.0" y="93" width="12" height="12" rx="2" fill="#41b883" fill-opacity="0.08"/><rect x="307.0" y="108" width="12" height="12" rx="2" fill="#41b883" fill-opacity="0.08"/><rect x="307.0" y="123" width="12" height="12" rx="2" fill="#41b883" fill-opacity="0.28"/><rect x="307.0" y="138" width="12" height="12" rx="2" fill="#41b883" fill-opacity="0.28"/><rect x="307.0" y="153" width="12" height="12" rx="2" fill="#41b883" fill-opacity="0.28"/><rect x="307.0" y="168" width="12" height="12" rx="2" fill="#41b883" fill-opacity="0.08"/></g><g class="fade" style="animation-delay:252ms"><rect x="322.0" y="78" width="12" height="12" rx="2" fill="#41b883" fill-opacity="0.28"/><rect x="322.0" y="93" width="12" height="12" rx="2" fill="#41b883" fill-opacity="0.28"/><rect x="322.0" y="108" width="12" height="12" rx="2" fill="#41b883" fill-opacity="0.28"/><rect x="322.0" y="123" width="12" height="12" rx="2" fill="#41b883" fill-opacity="0.28"/><rect x="322.0" y="138" width="12" height="12" rx="2" fill="#41b883" fill-opacity="0.28"/><rect x="322.0" y="153" width="12" height="12" rx="2" fill="#41b883" fill-opacity="0.28"/><rect x="322.0" y="168" width="12" height="12" rx="2" fill="#41b883" fill-opacity="0.08"/></g><g class="fade" style="animation-delay:266ms"><rect x="337.0" y="78" width="12" height="12" rx="2" fill="#41b883" fill-opacity="0.28"/><rect x="337.0" y="93" width="12" height="12" rx="2" fill="#41b883" fill-opacity="0.28"/><rect x="337.0" y="108" width="12" height="12" rx="2" fill="#41b883" fill-opacity="0.28"/><rect x="337.0" y="123" width="12" height="12" rx="2" fill="#41b883" fill-opacity="0.28"/><rect x="337.0" y="138" width="12" height="12" rx="2" fill="#41b883" fill-opacity="0.28"/><rect x="337.0" y="153" width="12" height="12" rx="2" fill="#41b883" fill-opacity="0.28"/><rect x="337.0" y="168" width="12" height="12" rx="2" fill="#41b883" fill-opacity="0.5"/></g><g class="fade" style="animation-delay:280ms"><rect x="352.0" y="78" width="12" height="12" rx="2" fill="#41b883" fill-opacity="0.5"/><rect x="352.0" y="93" width="12" height="12" rx="2" fill="#41b883" fill-opacity="0.5"/><rect x="352.0" y="108" width="12" height="12" rx="2" fill="#41b883" fill-opacity="0.28"/><rect x="352.0" y="123" width="12" height="12" rx="2" fill="#41b883" fill-opacity="0.28"/><rect x="352.0" y="138" width="12" height="12" rx="2" fill="#41b883" fill-opacity="0.28"/><rect x="352.0" y="153" width="12" height="12" rx="2" fill="#41b883" fill-opacity="0.28"/><rect x="352.0" y="168" width="12" height="12" rx="2" fill="#41b883" fill-opacity="0.5"/></g><g class="fade" style="animation-delay:294ms"><rect x="367.0" y="78" width="12" height="12" rx="2" fill="#41b883" fill-opacity="0.28"/><rect x="367.0" y="93" width="12" height="12" rx="2" fill="#41b883" fill-opacity="0.28"/><rect x="367.0" y="108" width="12" height="12" rx="2" fill="#41b883" fill-opacity="0.28"/><rect x="367.0" y="123" width="12" height="12" rx="2" fill="#41b883" fill-opacity="0.28"/><rect x="367.0" y="138" width="12" height="12" rx="2" fill="#41b883" fill-opacity="0.28"/><rect x="367.0" y="153" width="12" height="12" rx="2" fill="#41b883" fill-opacity="0.28"/><rect x="367.0" y="168" width="12" height="12" rx="2" fill="#41b883" fill-opacity="0.28"/></g><g class="fade" style="animation-delay:308ms"><rect x="382.0" y="78" width="12" height="12" rx="2" fill="#41b883" fill-opacity="0.08"/><rect x="382.0" y="93" width="12" height="12" rx="2" fill="#41b883" fill-opacity="0.28"/><rect x="382.0" y="108" width="12" height="12" rx="2" fill="#41b883" fill-opacity="0.5"/><rect x="382.0" y="123" width="12" height="12" rx="2" fill="#41b883" fill-opacity="0.75"/><rect x="382.0" y="138" width="12" height="12" rx="2" fill="#41b883" fill-opacity="0.5"/><rect x="382.0" y="153" width="12" height="12" rx="2" fill="#41b883" fill-opacity="0.5"/><rect x="382.0" y="168" width="12" height="12" rx="2" fill="#41b883" fill-opacity="0.08"/></g><g class="fade" style="animation-delay:322ms"><rect x="397.0" y="78" width="12" height="12" rx="2" fill="#41b883" fill-opacity="0.08"/><rect x="397.0" y="93" width="12" height="12" rx="2" fill="#41b883" fill-opacity="0.28"/><rect x="397.0" y="108" width="12" height="12" rx="2" fill="#41b883" fill-opacity="0.28"/><rect x="397.0" y="123" width="12" height="12" rx="2" fill="#41b883" fill-opacity="0.08"/><rect x="397.0" y="138" width="12" height="12" rx="2" fill="#41b883" fill-opacity="0.5"/></g>
    <g transform="translate(24, 202) scale(0.6875)"><path class="icon" d="M9.533.753V.752c.001.078.024 1.213-.469 2.484-.277.717-.694 1.464-1.322 2.108-.62.635-1.44 1.153-2.521 1.363-.223.043-.4.21-.4.437v3.505c0 .21.146.39.35.44 1.34.325 2.463 1.078 3.24 2.03.782.955 1.19 2.086 1.19 3.191a.75.75 0 0 0 1.5 0c0-1.46-.542-2.92-1.527-4.128-.882-1.08-2.09-1.916-3.503-2.35v-2.6c1.15-.318 2.06-.923 2.75-1.63.75-.77 1.24-1.65 1.56-2.48.4-1.03.56-2.01.62-2.63a.75.75 0 0 0-1.468-.2Z"/></g>
    <text class="caption" x="40" y="211">1.2k CONTRIBUTIONS · LAST 24 WEEKS</text>
    
    <text class="row-dim" x="294" y="211" text-anchor="end">Less</text>
    <rect x="302" y="201" width="12" height="12" rx="2" fill="#41b883" fill-opacity="0.08"/><rect x="317" y="201" width="12" height="12" rx="2" fill="#41b883" fill-opacity="0.28"/><rect x="332" y="201" width="12" height="12" rx="2" fill="#41b883" fill-opacity="0.5"/><rect x="347" y="201" width="12" height="12" rx="2" fill="#41b883" fill-opacity="0.75"/><rect x="362" y="201" width="12" height="12" rx="2" fill="#41b883" fill-opacity="1"/>
    <text class="row-dim" x="381" y="211">More</text>
</svg>
